<mxfile host="app.diagrams.net" modified="2023-06-22T10:50:53.562Z" agent="Mozilla/5.0 (Windows NT 10.0; Win64; x64) AppleWebKit/537.36 (KHTML, like Gecko) Chrome/114.0.0.0 Safari/537.36" etag="lif6PqJTHQUGSTmGYKNm" version="21.3.8" type="device">
  <diagram name="Page-1" id="zZePVW0mCl9_P6tovyuH">
    <mxGraphModel dx="2085" dy="578" grid="1" gridSize="10" guides="1" tooltips="1" connect="1" arrows="1" fold="1" page="1" pageScale="1" pageWidth="850" pageHeight="1100" math="0" shadow="0">
      <root>
        <mxCell id="0" />
        <mxCell id="1" parent="0" />
        <mxCell id="Hb2QPvDebyr5uTv4UzMN-5" value="User" style="whiteSpace=wrap;html=1;align=center;" vertex="1" parent="1">
          <mxGeometry x="620" y="380" width="100" height="40" as="geometry" />
        </mxCell>
        <mxCell id="Hb2QPvDebyr5uTv4UzMN-10" value="Reality show" style="whiteSpace=wrap;html=1;align=center;" vertex="1" parent="1">
          <mxGeometry x="10" y="150" width="100" height="40" as="geometry" />
        </mxCell>
        <mxCell id="Hb2QPvDebyr5uTv4UzMN-11" value="Producer" style="whiteSpace=wrap;html=1;align=center;" vertex="1" parent="1">
          <mxGeometry x="660" y="150" width="100" height="40" as="geometry" />
        </mxCell>
        <mxCell id="Hb2QPvDebyr5uTv4UzMN-12" value="Name" style="ellipse;whiteSpace=wrap;html=1;align=center;" vertex="1" parent="1">
          <mxGeometry x="-130" y="70" width="100" height="40" as="geometry" />
        </mxCell>
        <mxCell id="Hb2QPvDebyr5uTv4UzMN-13" value="Basic info" style="ellipse;whiteSpace=wrap;html=1;align=center;" vertex="1" parent="1">
          <mxGeometry x="50" y="80" width="100" height="40" as="geometry" />
        </mxCell>
        <mxCell id="Hb2QPvDebyr5uTv4UzMN-14" value="R_Id" style="ellipse;whiteSpace=wrap;html=1;align=center;fontStyle=4;" vertex="1" parent="1">
          <mxGeometry x="-180" y="180" width="100" height="40" as="geometry" />
        </mxCell>
        <mxCell id="Hb2QPvDebyr5uTv4UzMN-15" value="" style="endArrow=none;html=1;rounded=0;entryX=0.5;entryY=1;entryDx=0;entryDy=0;exitX=0.648;exitY=-0.029;exitDx=0;exitDy=0;exitPerimeter=0;" edge="1" parent="1" source="Hb2QPvDebyr5uTv4UzMN-10" target="Hb2QPvDebyr5uTv4UzMN-13">
          <mxGeometry width="50" height="50" relative="1" as="geometry">
            <mxPoint x="220" y="370" as="sourcePoint" />
            <mxPoint x="270" y="320" as="targetPoint" />
          </mxGeometry>
        </mxCell>
        <mxCell id="Hb2QPvDebyr5uTv4UzMN-16" value="" style="endArrow=none;html=1;rounded=0;entryX=1;entryY=1;entryDx=0;entryDy=0;exitX=0;exitY=0;exitDx=0;exitDy=0;" edge="1" parent="1" source="Hb2QPvDebyr5uTv4UzMN-10" target="Hb2QPvDebyr5uTv4UzMN-12">
          <mxGeometry width="50" height="50" relative="1" as="geometry">
            <mxPoint x="220" y="370" as="sourcePoint" />
            <mxPoint x="270" y="320" as="targetPoint" />
          </mxGeometry>
        </mxCell>
        <mxCell id="Hb2QPvDebyr5uTv4UzMN-17" value="" style="endArrow=none;html=1;rounded=0;entryX=0;entryY=1;entryDx=0;entryDy=0;exitX=1;exitY=0.5;exitDx=0;exitDy=0;" edge="1" parent="1" source="Hb2QPvDebyr5uTv4UzMN-14" target="Hb2QPvDebyr5uTv4UzMN-10">
          <mxGeometry width="50" height="50" relative="1" as="geometry">
            <mxPoint x="220" y="370" as="sourcePoint" />
            <mxPoint x="270" y="320" as="targetPoint" />
          </mxGeometry>
        </mxCell>
        <mxCell id="Hb2QPvDebyr5uTv4UzMN-18" value="TV_Id" style="ellipse;whiteSpace=wrap;html=1;align=center;fontStyle=4;" vertex="1" parent="1">
          <mxGeometry x="-130" y="510" width="100" height="40" as="geometry" />
        </mxCell>
        <mxCell id="Hb2QPvDebyr5uTv4UzMN-19" value="name" style="ellipse;whiteSpace=wrap;html=1;align=center;" vertex="1" parent="1">
          <mxGeometry x="80" y="550" width="100" height="40" as="geometry" />
        </mxCell>
        <mxCell id="Hb2QPvDebyr5uTv4UzMN-20" value="country" style="ellipse;whiteSpace=wrap;html=1;align=center;" vertex="1" parent="1">
          <mxGeometry x="570" y="70" width="100" height="40" as="geometry" />
        </mxCell>
        <mxCell id="Hb2QPvDebyr5uTv4UzMN-21" value="P_id" style="ellipse;whiteSpace=wrap;html=1;align=center;fontStyle=4;" vertex="1" parent="1">
          <mxGeometry x="710" y="60" width="100" height="40" as="geometry" />
        </mxCell>
        <mxCell id="Hb2QPvDebyr5uTv4UzMN-22" value="company name" style="ellipse;whiteSpace=wrap;html=1;align=center;" vertex="1" parent="1">
          <mxGeometry x="790" y="110" width="100" height="40" as="geometry" />
        </mxCell>
        <mxCell id="Hb2QPvDebyr5uTv4UzMN-23" value="TV channel" style="whiteSpace=wrap;html=1;align=center;" vertex="1" parent="1">
          <mxGeometry x="10" y="470" width="100" height="40" as="geometry" />
        </mxCell>
        <mxCell id="Hb2QPvDebyr5uTv4UzMN-24" value="" style="endArrow=none;html=1;rounded=0;exitX=1;exitY=0.5;exitDx=0;exitDy=0;entryX=0;entryY=1;entryDx=0;entryDy=0;" edge="1" parent="1" source="Hb2QPvDebyr5uTv4UzMN-18" target="Hb2QPvDebyr5uTv4UzMN-23">
          <mxGeometry width="50" height="50" relative="1" as="geometry">
            <mxPoint x="230" y="370" as="sourcePoint" />
            <mxPoint x="280" y="320" as="targetPoint" />
          </mxGeometry>
        </mxCell>
        <mxCell id="Hb2QPvDebyr5uTv4UzMN-25" value="" style="endArrow=none;html=1;rounded=0;entryX=0.359;entryY=0.991;entryDx=0;entryDy=0;entryPerimeter=0;exitX=0.5;exitY=0;exitDx=0;exitDy=0;" edge="1" parent="1" source="Hb2QPvDebyr5uTv4UzMN-11" target="Hb2QPvDebyr5uTv4UzMN-21">
          <mxGeometry width="50" height="50" relative="1" as="geometry">
            <mxPoint x="230" y="370" as="sourcePoint" />
            <mxPoint x="280" y="320" as="targetPoint" />
          </mxGeometry>
        </mxCell>
        <mxCell id="Hb2QPvDebyr5uTv4UzMN-26" value="" style="endArrow=none;html=1;rounded=0;exitX=0;exitY=0;exitDx=0;exitDy=0;entryX=1;entryY=1;entryDx=0;entryDy=0;" edge="1" parent="1" source="Hb2QPvDebyr5uTv4UzMN-11" target="Hb2QPvDebyr5uTv4UzMN-20">
          <mxGeometry width="50" height="50" relative="1" as="geometry">
            <mxPoint x="230" y="370" as="sourcePoint" />
            <mxPoint x="280" y="320" as="targetPoint" />
          </mxGeometry>
        </mxCell>
        <mxCell id="Hb2QPvDebyr5uTv4UzMN-27" value="" style="endArrow=none;html=1;rounded=0;exitX=0.5;exitY=0;exitDx=0;exitDy=0;entryX=0.5;entryY=1;entryDx=0;entryDy=0;" edge="1" parent="1" source="Hb2QPvDebyr5uTv4UzMN-19" target="Hb2QPvDebyr5uTv4UzMN-23">
          <mxGeometry width="50" height="50" relative="1" as="geometry">
            <mxPoint x="230" y="370" as="sourcePoint" />
            <mxPoint x="280" y="320" as="targetPoint" />
          </mxGeometry>
        </mxCell>
        <mxCell id="Hb2QPvDebyr5uTv4UzMN-29" value="" style="endArrow=none;html=1;rounded=0;entryX=0;entryY=0.5;entryDx=0;entryDy=0;exitX=1;exitY=0.5;exitDx=0;exitDy=0;" edge="1" parent="1" source="Hb2QPvDebyr5uTv4UzMN-10" target="Hb2QPvDebyr5uTv4UzMN-31">
          <mxGeometry width="50" height="50" relative="1" as="geometry">
            <mxPoint x="120" y="170" as="sourcePoint" />
            <mxPoint x="280" y="320" as="targetPoint" />
          </mxGeometry>
        </mxCell>
        <mxCell id="Hb2QPvDebyr5uTv4UzMN-30" value="" style="endArrow=none;html=1;rounded=0;entryX=0;entryY=1;entryDx=0;entryDy=0;exitX=1;exitY=0.5;exitDx=0;exitDy=0;" edge="1" parent="1" source="Hb2QPvDebyr5uTv4UzMN-11" target="Hb2QPvDebyr5uTv4UzMN-22">
          <mxGeometry width="50" height="50" relative="1" as="geometry">
            <mxPoint x="230" y="370" as="sourcePoint" />
            <mxPoint x="280" y="320" as="targetPoint" />
          </mxGeometry>
        </mxCell>
        <mxCell id="Hb2QPvDebyr5uTv4UzMN-31" value="produce by" style="shape=rhombus;perimeter=rhombusPerimeter;whiteSpace=wrap;html=1;align=center;" vertex="1" parent="1">
          <mxGeometry x="305" y="140" width="120" height="60" as="geometry" />
        </mxCell>
        <mxCell id="Hb2QPvDebyr5uTv4UzMN-32" value="password" style="ellipse;whiteSpace=wrap;html=1;align=center;" vertex="1" parent="1">
          <mxGeometry x="540" y="460" width="100" height="40" as="geometry" />
        </mxCell>
        <mxCell id="Hb2QPvDebyr5uTv4UzMN-33" value="U_Id" style="ellipse;whiteSpace=wrap;html=1;align=center;fontStyle=4;" vertex="1" parent="1">
          <mxGeometry x="780" y="340" width="100" height="40" as="geometry" />
        </mxCell>
        <mxCell id="Hb2QPvDebyr5uTv4UzMN-34" value="username" style="ellipse;whiteSpace=wrap;html=1;align=center;" vertex="1" parent="1">
          <mxGeometry x="780" y="430" width="100" height="40" as="geometry" />
        </mxCell>
        <mxCell id="Hb2QPvDebyr5uTv4UzMN-44" style="edgeStyle=none;rounded=0;orthogonalLoop=1;jettySize=auto;html=1;" edge="1" parent="1" source="Hb2QPvDebyr5uTv4UzMN-35">
          <mxGeometry relative="1" as="geometry">
            <mxPoint x="710" y="470" as="targetPoint" />
          </mxGeometry>
        </mxCell>
        <mxCell id="Hb2QPvDebyr5uTv4UzMN-35" value="age" style="ellipse;whiteSpace=wrap;html=1;align=center;" vertex="1" parent="1">
          <mxGeometry x="660" y="460" width="100" height="40" as="geometry" />
        </mxCell>
        <mxCell id="Hb2QPvDebyr5uTv4UzMN-36" value="rate" style="shape=rhombus;perimeter=rhombusPerimeter;whiteSpace=wrap;html=1;align=center;" vertex="1" parent="1">
          <mxGeometry x="330" y="300" width="120" height="60" as="geometry" />
        </mxCell>
        <mxCell id="Hb2QPvDebyr5uTv4UzMN-37" value="" style="endArrow=none;html=1;rounded=0;exitX=1;exitY=1;exitDx=0;exitDy=0;entryX=0;entryY=0.5;entryDx=0;entryDy=0;" edge="1" parent="1" source="Hb2QPvDebyr5uTv4UzMN-10" target="Hb2QPvDebyr5uTv4UzMN-36">
          <mxGeometry relative="1" as="geometry">
            <mxPoint x="170" y="340" as="sourcePoint" />
            <mxPoint x="330" y="340" as="targetPoint" />
          </mxGeometry>
        </mxCell>
        <mxCell id="Hb2QPvDebyr5uTv4UzMN-38" value="" style="endArrow=none;html=1;rounded=0;entryX=0;entryY=0.25;entryDx=0;entryDy=0;exitX=0.934;exitY=0.586;exitDx=0;exitDy=0;exitPerimeter=0;" edge="1" parent="1" target="Hb2QPvDebyr5uTv4UzMN-5">
          <mxGeometry relative="1" as="geometry">
            <mxPoint x="616.04" y="387.5799999999999" as="sourcePoint" />
            <mxPoint x="330" y="340" as="targetPoint" />
          </mxGeometry>
        </mxCell>
        <mxCell id="Hb2QPvDebyr5uTv4UzMN-39" value="participant" style="ellipse;shape=doubleEllipse;margin=3;whiteSpace=wrap;html=1;align=center;" vertex="1" parent="1">
          <mxGeometry x="-170" y="260" width="100" height="40" as="geometry" />
        </mxCell>
        <mxCell id="Hb2QPvDebyr5uTv4UzMN-40" value="" style="endArrow=none;html=1;rounded=0;entryX=0.25;entryY=1;entryDx=0;entryDy=0;" edge="1" parent="1" source="Hb2QPvDebyr5uTv4UzMN-39" target="Hb2QPvDebyr5uTv4UzMN-10">
          <mxGeometry relative="1" as="geometry">
            <mxPoint x="170" y="340" as="sourcePoint" />
            <mxPoint x="330" y="340" as="targetPoint" />
          </mxGeometry>
        </mxCell>
        <mxCell id="Hb2QPvDebyr5uTv4UzMN-42" value="" style="endArrow=none;html=1;rounded=0;entryX=0;entryY=1;entryDx=0;entryDy=0;exitX=0.762;exitY=0.032;exitDx=0;exitDy=0;exitPerimeter=0;" edge="1" parent="1" source="Hb2QPvDebyr5uTv4UzMN-32" target="Hb2QPvDebyr5uTv4UzMN-5">
          <mxGeometry width="50" height="50" relative="1" as="geometry">
            <mxPoint x="230" y="370" as="sourcePoint" />
            <mxPoint x="280" y="320" as="targetPoint" />
          </mxGeometry>
        </mxCell>
        <mxCell id="Hb2QPvDebyr5uTv4UzMN-43" value="" style="endArrow=none;html=1;rounded=0;entryX=0.5;entryY=1;entryDx=0;entryDy=0;" edge="1" parent="1" target="Hb2QPvDebyr5uTv4UzMN-5">
          <mxGeometry width="50" height="50" relative="1" as="geometry">
            <mxPoint x="710" y="460" as="sourcePoint" />
            <mxPoint x="280" y="320" as="targetPoint" />
          </mxGeometry>
        </mxCell>
        <mxCell id="Hb2QPvDebyr5uTv4UzMN-45" value="" style="endArrow=none;html=1;rounded=0;exitX=0.904;exitY=1.012;exitDx=0;exitDy=0;exitPerimeter=0;" edge="1" parent="1" source="Hb2QPvDebyr5uTv4UzMN-5" target="Hb2QPvDebyr5uTv4UzMN-34">
          <mxGeometry width="50" height="50" relative="1" as="geometry">
            <mxPoint x="230" y="370" as="sourcePoint" />
            <mxPoint x="280" y="320" as="targetPoint" />
          </mxGeometry>
        </mxCell>
        <mxCell id="Hb2QPvDebyr5uTv4UzMN-46" value="" style="endArrow=none;html=1;rounded=0;exitX=0;exitY=0.5;exitDx=0;exitDy=0;entryX=1;entryY=0.5;entryDx=0;entryDy=0;" edge="1" parent="1" source="Hb2QPvDebyr5uTv4UzMN-33" target="Hb2QPvDebyr5uTv4UzMN-5">
          <mxGeometry width="50" height="50" relative="1" as="geometry">
            <mxPoint x="230" y="370" as="sourcePoint" />
            <mxPoint x="280" y="320" as="targetPoint" />
          </mxGeometry>
        </mxCell>
        <mxCell id="Hb2QPvDebyr5uTv4UzMN-47" value="brodcast" style="shape=rhombus;perimeter=rhombusPerimeter;whiteSpace=wrap;html=1;align=center;" vertex="1" parent="1">
          <mxGeometry y="310" width="120" height="60" as="geometry" />
        </mxCell>
        <mxCell id="Hb2QPvDebyr5uTv4UzMN-49" value="" style="endArrow=none;html=1;rounded=0;exitX=0.5;exitY=0;exitDx=0;exitDy=0;entryX=0.5;entryY=1;entryDx=0;entryDy=0;" edge="1" parent="1" source="Hb2QPvDebyr5uTv4UzMN-47" target="Hb2QPvDebyr5uTv4UzMN-10">
          <mxGeometry width="50" height="50" relative="1" as="geometry">
            <mxPoint x="340" y="370" as="sourcePoint" />
            <mxPoint x="390" y="320" as="targetPoint" />
          </mxGeometry>
        </mxCell>
        <mxCell id="Hb2QPvDebyr5uTv4UzMN-50" value="" style="endArrow=none;html=1;rounded=0;exitX=0.5;exitY=0;exitDx=0;exitDy=0;entryX=0.5;entryY=1;entryDx=0;entryDy=0;" edge="1" parent="1" source="Hb2QPvDebyr5uTv4UzMN-23" target="Hb2QPvDebyr5uTv4UzMN-47">
          <mxGeometry width="50" height="50" relative="1" as="geometry">
            <mxPoint x="340" y="370" as="sourcePoint" />
            <mxPoint x="390" y="320" as="targetPoint" />
          </mxGeometry>
        </mxCell>
        <mxCell id="Hb2QPvDebyr5uTv4UzMN-51" value="start year" style="ellipse;whiteSpace=wrap;html=1;align=center;" vertex="1" parent="1">
          <mxGeometry x="-170" y="430" width="100" height="40" as="geometry" />
        </mxCell>
        <mxCell id="Hb2QPvDebyr5uTv4UzMN-52" value="head office" style="ellipse;whiteSpace=wrap;html=1;align=center;" vertex="1" parent="1">
          <mxGeometry x="-40" y="560" width="100" height="40" as="geometry" />
        </mxCell>
        <mxCell id="Hb2QPvDebyr5uTv4UzMN-55" value="" style="endArrow=none;html=1;rounded=0;exitX=0.5;exitY=0;exitDx=0;exitDy=0;entryX=0.25;entryY=1;entryDx=0;entryDy=0;" edge="1" parent="1" source="Hb2QPvDebyr5uTv4UzMN-52" target="Hb2QPvDebyr5uTv4UzMN-23">
          <mxGeometry width="50" height="50" relative="1" as="geometry">
            <mxPoint x="340" y="290" as="sourcePoint" />
            <mxPoint x="390" y="240" as="targetPoint" />
          </mxGeometry>
        </mxCell>
        <mxCell id="Hb2QPvDebyr5uTv4UzMN-56" value="" style="endArrow=none;html=1;rounded=0;entryX=0;entryY=0.25;entryDx=0;entryDy=0;" edge="1" parent="1" source="Hb2QPvDebyr5uTv4UzMN-51" target="Hb2QPvDebyr5uTv4UzMN-23">
          <mxGeometry width="50" height="50" relative="1" as="geometry">
            <mxPoint x="340" y="290" as="sourcePoint" />
            <mxPoint x="390" y="240" as="targetPoint" />
          </mxGeometry>
        </mxCell>
        <mxCell id="Hb2QPvDebyr5uTv4UzMN-58" value="" style="endArrow=none;html=1;rounded=0;entryX=0;entryY=0.5;entryDx=0;entryDy=0;exitX=1;exitY=0.5;exitDx=0;exitDy=0;" edge="1" parent="1" source="Hb2QPvDebyr5uTv4UzMN-31" target="Hb2QPvDebyr5uTv4UzMN-11">
          <mxGeometry width="50" height="50" relative="1" as="geometry">
            <mxPoint x="425" y="170" as="sourcePoint" />
            <mxPoint x="600" y="170" as="targetPoint" />
          </mxGeometry>
        </mxCell>
        <mxCell id="Hb2QPvDebyr5uTv4UzMN-59" value="1" style="text;html=1;strokeColor=none;fillColor=none;align=center;verticalAlign=middle;whiteSpace=wrap;rounded=0;" vertex="1" parent="1">
          <mxGeometry x="610" y="150" width="60" height="30" as="geometry" />
        </mxCell>
        <mxCell id="Hb2QPvDebyr5uTv4UzMN-61" value="&lt;h1&gt;Assumptions&lt;/h1&gt;&lt;div&gt;R_id=Realty show id&lt;/div&gt;&lt;div&gt;U_Id=User Id&lt;/div&gt;&lt;div&gt;P_Id=Producer id&lt;/div&gt;" style="text;html=1;strokeColor=none;fillColor=none;spacing=5;spacingTop=-20;whiteSpace=wrap;overflow=hidden;rounded=0;" vertex="1" parent="1">
          <mxGeometry x="-170" y="734" width="190" height="120" as="geometry" />
        </mxCell>
        <mxCell id="Hb2QPvDebyr5uTv4UzMN-62" value="m" style="text;html=1;strokeColor=none;fillColor=none;align=center;verticalAlign=middle;whiteSpace=wrap;rounded=0;" vertex="1" parent="1">
          <mxGeometry x="90" y="150" width="60" height="30" as="geometry" />
        </mxCell>
        <mxCell id="Hb2QPvDebyr5uTv4UzMN-64" value="" style="endArrow=none;html=1;rounded=0;exitX=0.934;exitY=0.586;exitDx=0;exitDy=0;exitPerimeter=0;" edge="1" parent="1" source="Hb2QPvDebyr5uTv4UzMN-36">
          <mxGeometry relative="1" as="geometry">
            <mxPoint x="442" y="335" as="sourcePoint" />
            <mxPoint x="620" y="390" as="targetPoint" />
          </mxGeometry>
        </mxCell>
        <mxCell id="Hb2QPvDebyr5uTv4UzMN-65" value="1" style="text;html=1;strokeColor=none;fillColor=none;align=center;verticalAlign=middle;whiteSpace=wrap;rounded=0;" vertex="1" parent="1">
          <mxGeometry x="110" y="180" width="60" height="30" as="geometry" />
        </mxCell>
        <mxCell id="Hb2QPvDebyr5uTv4UzMN-66" value="m" style="text;html=1;strokeColor=none;fillColor=none;align=center;verticalAlign=middle;whiteSpace=wrap;rounded=0;" vertex="1" parent="1">
          <mxGeometry x="580" y="360" width="60" height="30" as="geometry" />
        </mxCell>
        <mxCell id="Hb2QPvDebyr5uTv4UzMN-67" value="m" style="text;html=1;strokeColor=none;fillColor=none;align=center;verticalAlign=middle;whiteSpace=wrap;rounded=0;" vertex="1" parent="1">
          <mxGeometry x="50" y="191" width="60" height="30" as="geometry" />
        </mxCell>
        <mxCell id="Hb2QPvDebyr5uTv4UzMN-68" value="1" style="text;html=1;strokeColor=none;fillColor=none;align=center;verticalAlign=middle;whiteSpace=wrap;rounded=0;" vertex="1" parent="1">
          <mxGeometry x="40" y="440" width="60" height="30" as="geometry" />
        </mxCell>
        <mxCell id="Hb2QPvDebyr5uTv4UzMN-69" value="" style="edgeStyle=none;rounded=0;orthogonalLoop=1;jettySize=auto;html=1;" edge="1" parent="1" source="Hb2QPvDebyr5uTv4UzMN-23" target="Hb2QPvDebyr5uTv4UzMN-68">
          <mxGeometry relative="1" as="geometry" />
        </mxCell>
      </root>
    </mxGraphModel>
  </diagram>
</mxfile>
